<svg width="191" height="209" viewBox="0 0 191 209" fill="#fff" xmlns="http://www.w3.org/2000/svg">
<path d="M66.5333 10.3333C31.2 23.2667 32 23 32 24.3333C32 25 34.2667 26.2 37.0667 27.1333C39.7333 27.9333 54.1333 33.4 69.0667 39.2667L96.1333 49.9333L119.067 41C131.733 36.0667 144.667 30.8667 147.867 29.5333C155.733 26.2 156 26.2 156 32.0667C156 35.5333 155.2 37.5333 153.333 38.7333C150.667 40.3333 149.733 44.8667 151.733 46.2C152.4 46.6 152.667 50.3333 152.267 54.4667C151.733 60.4667 152 61.9333 153.467 61.4C154.533 61.1333 155.867 59.6667 156.533 58.0667C157.733 55.4 157.867 55.5333 160.8 58.8667C164.667 63.4 165.6 62.2 164.133 54.2C163.333 50.2 163.333 46.8667 164.133 45.4C165.467 42.8667 163.6 37.6667 161.333 37.6667C160.533 37.6667 160 34.4667 160 30.4667C160 21.8 161.6 22.8667 128 11C115.2 6.46666 102.8 1.93333 100.533 0.999995C96.8 -0.600005 94.4 0.0666614 66.5333 10.3333ZM136 18.7333C141.467 20.7333 145.867 22.8667 145.867 23.6667C145.6 25.1333 137.467 28.6 111.6 38.6L95.7333 44.6L74.9333 36.4667C50.2667 26.7333 44.8 24.4667 45.6 23.6667C46.4 22.7333 81.4667 9.4 89.3333 7L96.6667 4.73333L111.333 10.0667C119.467 12.8667 130.533 16.8667 136 18.7333Z" fill="#fff"/>
<path d="M88.9333 16.0667C84.4 20.8667 84.4 24.2 89.0667 28.7333C94.2667 33.8 100 33.5333 104.533 28.2C108.933 23 108.933 21 104.133 16.2C98.9333 11.1333 93.7333 11.1333 88.9333 16.0667ZM99.3333 17.9333C103.867 19.9333 103.867 25.1333 99.3333 27.2667C96.8 28.4667 95.4667 28.3333 92.6667 26.4667C88.5333 23.8 88.4 21.1333 92.2667 18.4667C95.8667 15.9333 95.0667 15.9333 99.3333 17.9333Z" fill="#fff"/>
<path d="M60 46.8667V53.4L78.5333 60.2L97.0667 67L106.8 62.7333C112.267 60.4667 120 57.5333 124 56.3333L131.333 53.9333L131.733 47.2667L132.133 40.4667L114.133 47.8L96 55L83.0667 49.8C75.8667 46.8667 67.7333 43.5333 65.0667 42.4667L60 40.3333V46.8667Z" fill="#fff"/>
<path d="M133.333 63.1333C120.667 64.0667 109.733 67.8 101.333 73.8C95.7333 77.9333 95.7333 77.9333 92.8 75.2667C85.3333 68.4667 69.3333 63 56.4 63C47.4667 63 46.6667 63.2667 46.6667 65.8C46.6667 70.7333 44.1333 73.9333 40.6667 73.1333C38.9333 72.7333 37.0667 73.1333 36.2667 74.0667C34.9333 75.5333 31.7333 91.4 26.9333 119.8C25.6 127.533 27.0667 132.067 31.2 133C32.8 133.4 38.1333 134.6 43.3333 135.8C60.8 139.667 76.6667 145.533 80.1333 149.133C89.2 158.867 102.8 158.867 111.867 149.133C115.867 144.867 131.867 139.533 160.267 133.133C166.8 131.667 166.933 129.267 162.667 102.733C160.4 89.2667 158.267 77 158 75.4C157.467 73.1333 156.267 72.4667 152.267 72.0667C147.867 71.6667 147.333 71.2667 146.933 67.6667C146.667 65.4 146 63.4 145.6 63C145.067 62.6 139.6 62.6 133.333 63.1333ZM75.0667 71.6667C80 73.4 86.1333 76.3333 88.6667 78.2L93.2 81.6667L93.6 106.333C93.8667 119.933 93.7333 131 93.4667 131C93.2 131 91.2 129.4 88.8 127.4C80.8 120.6 60.8 113.667 49.3333 113.667C44.1333 113.667 43.7333 113.4 44.4 110.6C44.8 109 46.4 98.4667 48.1333 87.2667L51.2 66.8667L58.5333 67.8C62.6667 68.2 70.1333 69.9333 75.0667 71.6667ZM141.867 71.2667C142.267 73.6667 143.6 82.2 144.667 90.3333C145.867 98.3333 147.067 107 147.467 109.267C148.267 113.667 148.267 113.667 143.067 113.667C131.6 113.667 110 121.667 102.133 129C100.133 130.867 98.2667 132.333 98.1333 132.067C98.1333 131.8 98.2667 120.333 98.6667 106.333L99.3333 81.1333L104.667 77.5333C111.467 72.8667 126.8 68.2 138.933 67.1333C140.533 67 141.467 68.3333 141.867 71.2667ZM155.333 100.733L159.333 125.8L154 127.133C138.533 131 123.867 135.533 116.933 138.467C109.333 141.667 106 141.8 108.933 138.867C111.467 136.333 128.667 130.067 141.733 126.867C148.8 125.133 154.667 123 154.667 122.333C154.667 121.533 153.2 111.267 151.333 99.5333C147.467 75.1333 147.467 74.6 149.6 75.2667C150.533 75.6667 152.8 85.8 155.333 100.733ZM44.5333 78.6C43.0667 85.9333 37.2 123.267 37.6 123.533C37.7333 123.667 44.6667 125.533 52.9333 127.4C68.6667 131.267 81.2 136.333 84.2667 139.933C85.7333 141.8 85.7333 142.067 83.3333 141.267C81.8667 140.867 76.9333 139 72.5333 137.133C68 135.267 58 132.067 50.4 130.2C42.6667 128.333 35.6 126.2 34.6667 125.667C33.4667 124.867 33.8667 119.933 36.5333 103.533C41.0667 76.4667 41.0667 76.3333 43.2 76.3333C44.2667 76.3333 44.9333 77.2667 44.5333 78.6ZM66.2667 122.333C77.0667 125.667 89.6 132.867 93.0667 137.8C95.4667 141.267 96.9333 141 100.8 136.333C102.667 134.2 107.333 130.6 111.333 128.333C118.667 124.067 141.067 117.667 148.4 117.667C155.6 117.667 150.667 120.067 137.333 123C130.133 124.467 120.4 127.8 114.667 130.733C105.333 135.267 104.667 135.933 104.933 139.667C105.333 144.6 102 148.333 97.0667 148.333C89.7333 148.333 85.3333 143.933 87.8667 139.133C90.5333 134.333 68.9333 125 46.4 121.133C43.6 120.6 41.3333 119.533 41.3333 118.733C41.3333 116.733 52.9333 118.467 66.2667 122.333Z" fill="#fff"/>
<path d="M57.2 76.3333C57.0667 77 56.9333 78.3333 56.8 79.1333C56.6667 79.9333 61.0667 81.8 66.5333 83.1333C72 84.4667 78.4 86.8667 80.8 88.2C84.1333 90.2 85.4667 90.4667 86.5333 89.1333C87.2 88.3333 87.4667 86.8667 86.9333 86.2C85.4667 83.8 75.3333 79.1333 67.0667 77C58 74.6 57.3333 74.6 57.2 76.3333Z" fill="#fff"/>
<path d="M55.3333 88.0667C54.9333 88.4667 54.6667 89.8 54.6667 91.1333C54.6667 92.8667 56.5333 93.8 62.4 95C66.5333 95.9333 73.4667 98.0667 77.7333 99.9333C83.4667 102.467 85.8667 103 86.9333 101.933C89.2 99.6667 86.4 97.1333 78.2667 93.6667C70.8 90.3333 56.5333 86.8667 55.3333 88.0667Z" fill="#fff"/>
<path d="M52.8 102.467C51.6 105.533 51.7333 105.533 62.1333 107.8C67.2 108.733 74.4 111.133 78.1333 113C86.2667 117 86.6667 117 86.6667 113.8C86.6667 110.467 82.1333 107.667 70.1333 103.667C58.5333 99.8 54 99.5333 52.8 102.467Z" fill="#fff"/>
<path d="M124 77.4C113.867 80.0667 106.133 84.2 105.6 87.4C105.067 90.3333 107.333 90.2 114.133 87C117.2 85.4 123.6 83.4 128.267 82.4667C135.067 81.1333 136.667 80.3333 136.667 78.2C136.667 74.8667 134.267 74.7333 124 77.4Z" fill="#fff"/>
<path d="M133.333 88.0667C118.933 90.2 102.8 98.2 106.133 101.667C107.2 102.6 109.6 102.067 115.067 99.6667C119.2 97.8 126.133 95.5334 130.667 94.7334C136.8 93.5334 138.667 92.6 138.667 90.8667C138.667 87.9334 137.6 87.4 133.333 88.0667Z" fill="#fff"/>
<path d="M125.733 102.333C112.8 105.933 103.2 112.067 106.267 115.133C107.2 116.067 109.733 115.533 114.4 113.133C120.267 110.067 124.267 108.867 136.4 106.333C138.8 105.8 140 104.733 140 103C140 99.8 136 99.6667 125.733 102.333Z" fill="#fff"/>
</svg>